:FULLY-SPECIFIED
:FORCE-ALL-JOINTS-BE-3DOF
:DEGREES
1631
root -14.988 14.5898 19.3872 701.48 -71.3929 378.474
lfemur 12.3185 -11.4708 -13.2595
ltibia 28.5392 0 0
lfoot -21.236 29.0985 0
ltoes -44.2388 0 0
rfemur -52.4116 -14.3546 7.6364
rtibia 65.9421 0 0
rfoot -9.63756 10.3515 0
rtoes 3.88088 0 0
lowerback 13.0795 4.22064 -7.70467
upperback -0.258812 4.34346 -0.545525
thorax -8.17504 2.39037 2.8683
lowerneck 1.08508 -12.7164 -12.5597
upperneck 3.68993 -17.4492 9.91461
head 2.88676 -8.7484 4.26261
lclavicle 8.1665e-14 -1.5846e-14 0
lhumerus -71.7865 -17.1365 104.132
lradius 104.146 0 0
lwrist 54.7922 0 0
lhand -10.3697 49.341 0
lfingers 7.12502 0 0
lthumb 15.6151 78.5571 0
rclavicle 8.1665e-14 -1.5846e-14 0
rhumerus 46.8759 -3.83687 -55.6024
rradius 19.2968 0 0
rwrist 22.3797 0 0
rhand -18.2481 -35.8149 0
rfingers 7.12502 0 0
rthumb 8.03087 -65.6418 0
1632
root -15.0003 14.5881 19.3928 701.621 -71.4123 378.368
lfemur 12.3701 -11.5168 -13.2569
ltibia 28.4835 0 0
lfoot -21.2273 29.1717 0
ltoes -44.155 0 0
rfemur -52.4111 -14.381 7.65253
rtibia 65.9744 0 0
rfoot -9.75336 10.3838 0
rtoes 3.89825 0 0
lowerback 13.0584 4.21074 -7.67543
upperback -0.276406 4.33899 -0.520537
thorax -8.18137 2.38869 2.88031
lowerneck 1.11371 -12.7521 -12.5597
upperneck 3.65271 -17.4994 9.93251
head 2.87818 -8.77375 4.26681
lclavicle 8.2098e-14 -1.66979e-14 0
lhumerus -71.8225 -17.148 104.157
lradius 104.15 0 0
lwrist 54.7853 0 0
lhand -11.1505 49.1732 0
lfingers 7.12502 0 0
lthumb 14.8639 78.4574 0
rclavicle 8.2098e-14 -1.66979e-14 0
rhumerus 46.8806 -3.83478 -55.659
rradius 19.2623 0 0
rwrist 22.432 0 0
rhand -18.198 -35.7227 0
rfingers 7.12502 0 0
rthumb 8.07921 -65.5477 0
1633
root -15.0127 14.5864 19.3983 701.761 -71.4318 378.263
lfemur 12.4217 -11.5627 -13.2543
ltibia 28.4279 0 0
lfoot -21.2187 29.2448 0
ltoes -44.0712 0 0
rfemur -52.4105 -14.4073 7.66866
rtibia 66.0067 0 0
rfoot -9.86915 10.4161 0
rtoes 3.91563 0 0
lowerback 13.0373 4.20084 -7.64618
upperback -0.294 4.33452 -0.495549
thorax -8.1877 2.38701 2.89232
lowerneck 1.14234 -12.7879 -12.5597
upperneck 3.61549 -17.5496 9.95041
head 2.86961 -8.7991 4.27101
lclavicle 8.25311e-14 -1.75499e-14 0
lhumerus -71.8586 -17.1596 104.182
lradius 104.155 0 0
lwrist 54.7783 0 0
lhand -11.9314 49.0054 0
lfingers 7.12502 0 0
lthumb 14.1127 78.3578 0
rclavicle 8.25311e-14 -1.75499e-14 0
rhumerus 46.8853 -3.83269 -55.7156
rradius 19.2278 0 0
rwrist 22.4843 0 0
rhand -18.1479 -35.6305 0
rfingers 7.12502 0 0
rthumb 8.12755 -65.4537 0
1634
root -15.025 14.5848 19.4038 701.902 -71.4512 378.157
lfemur 12.4733 -11.6087 -13.2518
ltibia 28.3722 0 0
lfoot -21.21 29.318 0
ltoes -43.9874 0 0
rfemur -52.41 -14.4337 7.68478
rtibia 66.0391 0 0
rfoot -9.98494 10.4484 0
rtoes 3.933 0 0
lowerback 13.0162 4.19095 -7.61694
upperback -0.311594 4.33006 -0.470562
thorax -8.19403 2.38534 2.90433
lowerneck 1.17097 -12.8237 -12.5598
upperneck 3.57828 -17.5998 9.96831
head 2.86103 -8.82444 4.27521
lclavicle 8.29642e-14 -1.84018e-14 0
lhumerus -71.8947 -17.1711 104.207
lradius 104.16 0 0
lwrist 54.7714 0 0
lhand -12.7122 48.8377 0
lfingers 7.12502 0 0
lthumb 13.3615 78.2581 0
rclavicle 8.29642e-14 -1.84018e-14 0
rhumerus 46.8899 -3.83059 -55.7723
rradius 19.1933 0 0
rwrist 22.5365 0 0
rhand -18.0979 -35.5382 0
rfingers 7.12502 0 0
rthumb 8.1759 -65.3596 0
1635
root -15.0374 14.5831 19.4093 702.043 -71.4706 378.052
lfemur 12.5249 -11.6546 -13.2492
ltibia 28.3166 0 0
lfoot -21.2014 29.3912 0
ltoes -43.9036 0 0
rfemur -52.4095 -14.46 7.70091
rtibia 66.0714 0 0
rfoot -10.1007 10.4807 0
rtoes 3.95037 0 0
lowerback 12.9951 4.18105 -7.5877
upperback -0.329189 4.32559 -0.445574
thorax -8.20036 2.38366 2.91634
lowerneck 1.1996 -12.8595 -12.5598
upperneck 3.54106 -17.65 9.98621
head 2.85245 -8.84979 4.27941
lclavicle 8.33972e-14 -1.92538e-14 0
lhumerus -71.9307 -17.1826 104.232
lradius 104.165 0 0
lwrist 54.7644 0 0
lhand -13.493 48.6699 0
lfingers 7.12502 0 0
lthumb 12.6103 78.1585 0
rclavicle 8.33972e-14 -1.92538e-14 0
rhumerus 46.8946 -3.8285 -55.8289
rradius 19.1588 0 0
rwrist 22.5888 0 0
rhand -18.0478 -35.446 0
rfingers 7.12502 0 0
rthumb 8.22424 -65.2655 0
1636
root -15.0497 14.5814 19.4148 702.184 -71.49 377.946
lfemur 12.5764 -11.7006 -13.2466
ltibia 28.2609 0 0
lfoot -21.1927 29.4643 0
ltoes -43.8197 0 0
rfemur -52.4089 -14.4864 7.71704
rtibia 66.1037 0 0
rfoot -10.2165 10.5131 0
rtoes 3.96775 0 0
lowerback 12.974 4.17116 -7.55846
upperback -0.346783 4.32113 -0.420587
thorax -8.2067 2.38198 2.92835
lowerneck 1.22823 -12.8953 -12.5598
upperneck 3.50385 -17.7001 10.0041
head 2.84388 -8.87513 4.28361
lclavicle 8.38303e-14 -2.01057e-14 0
lhumerus -71.9668 -17.1942 104.258
lradius 104.17 0 0
lwrist 54.7575 0 0
lhand -14.2738 48.5022 0
lfingers 7.12502 0 0
lthumb 11.8591 78.0588 0
rclavicle 8.38303e-14 -2.01057e-14 0
rhumerus 46.8992 -3.8264 -55.8855
rradius 19.1243 0 0
rwrist 22.6411 0 0
rhand -17.9977 -35.3537 0
rfingers 7.12502 0 0
rthumb 8.27259 -65.1715 0
1637
root -15.0621 14.5797 19.4204 702.324 -71.5095 377.841
lfemur 12.628 -11.7465 -13.244
ltibia 28.2053 0 0
lfoot -21.1841 29.5375 0
ltoes -43.7359 0 0
rfemur -52.4084 -14.5127 7.73317
rtibia 66.136 0 0
rfoot -10.3323 10.5454 0
rtoes 3.98512 0 0
lowerback 12.9529 4.16126 -7.52921
upperback -0.364377 4.31666 -0.395599
thorax -8.21303 2.3803 2.94036
lowerneck 1.25686 -12.931 -12.5598
upperneck 3.46663 -17.7503 10.022
head 2.8353 -8.90048 4.28781
lclavicle 8.42634e-14 -2.09576e-14 0
lhumerus -72.0029 -17.2057 104.283
lradius 104.174 0 0
lwrist 54.7505 0 0
lhand -15.0547 48.3344 0
lfingers 7.12502 0 0
lthumb 11.1079 77.9592 0
rclavicle 8.42634e-14 -2.09576e-14 0
rhumerus 46.9039 -3.82431 -55.9421
rradius 19.0898 0 0
rwrist 22.6934 0 0
rhand -17.9476 -35.2615 0
rfingers 7.12502 0 0
rthumb 8.32093 -65.0774 0
1638
root -15.0744 14.578 19.4259 702.465 -71.5289 377.735
lfemur 12.6796 -11.7925 -13.2414
ltibia 28.1496 0 0
lfoot -21.1754 29.6106 0
ltoes -43.6521 0 0
rfemur -52.4078 -14.5391 7.74929
rtibia 66.1683 0 0
rfoot -10.4481 10.5777 0
rtoes 4.0025 0 0
lowerback 12.9318 4.15137 -7.49997
upperback -0.381972 4.3122 -0.370612
thorax -8.21936 2.37863 2.95237
lowerneck 1.28549 -12.9668 -12.5599
upperneck 3.42942 -17.8005 10.0399
head 2.82673 -8.92582 4.29201
lclavicle 8.46964e-14 -2.18096e-14 0
lhumerus -72.0389 -17.2173 104.308
lradius 104.179 0 0
lwrist 54.7436 0 0
lhand -15.8355 48.1667 0
lfingers 7.12502 0 0
lthumb 10.3567 77.8595 0
rclavicle 8.46964e-14 -2.18096e-14 0
rhumerus 46.9085 -3.82221 -55.9988
rradius 19.0553 0 0
rwrist 22.7457 0 0
rhand -17.8975 -35.1692 0
rfingers 7.12502 0 0
rthumb 8.36928 -64.9834 0
1639
root -15.0868 14.5763 19.4314 702.606 -71.5483 377.63
lfemur 12.7312 -11.8384 -13.2388
ltibia 28.094 0 0
lfoot -21.1668 29.6838 0
ltoes -43.5683 0 0
rfemur -52.4073 -14.5654 7.76542
rtibia 66.2006 0 0
rfoot -10.5639 10.61 0
rtoes 4.01987 0 0
lowerback 12.9107 4.14147 -7.47073
upperback -0.399566 4.30773 -0.345624
thorax -8.22569 2.37695 2.96438
lowerneck 1.31412 -13.0026 -12.5599
upperneck 3.3922 -17.8507 10.0578
head 2.81815 -8.95117 4.29621
lclavicle 8.51295e-14 -2.26615e-14 0
lhumerus -72.075 -17.2288 104.333
lradius 104.184 0 0
lwrist 54.7366 0 0
lhand -16.6163 47.9989 0
lfingers 7.12502 0 0
lthumb 9.60554 77.7599 0
rclavicle 8.51295e-14 -2.26615e-14 0
rhumerus 46.9132 -3.82012 -56.0554
rradius 19.0208 0 0
rwrist 22.798 0 0
rhand -17.8474 -35.077 0
rfingers 7.12502 0 0
rthumb 8.41762 -64.8893 0
1640
root -15.0552 14.5662 19.4499 703.074 -71.6227 377.21
lfemur 11.936 -11.9981 -13.1798
ltibia 29.4155 0 0
lfoot -21.1656 29.6572 0
ltoes -43.3828 0 0
rfemur -52.5175 -14.3672 7.76708
rtibia 66.0729 0 0
rfoot -10.4099 10.5779 0
rtoes 3.44749 0 0
lowerback 12.9357 4.12058 -7.37269
upperback -0.395129 4.29611 -0.31682
thorax -8.22844 2.36799 2.9418
lowerneck 1.42027 -13.0886 -12.6196
upperneck 3.1917 -17.9728 10.2296
head 2.77969 -9.01557 4.35741
lclavicle 8.16082e-14 -2.27751e-14 0
lhumerus -71.9954 -17.4106 104.354
lradius 104.181 0 0
lwrist 54.7505 0 0
lhand -16.5229 47.845 0
lfingers 7.12502 0 0
lthumb 9.69562 77.6014 0
rclavicle 8.16082e-14 -2.27751e-14 0
rhumerus 46.8368 -3.73799 -55.7496
rradius 19.2873 0 0
rwrist 21.8749 0 0
rhand -17.6104 -35.2397 0
rfingers 7.12502 0 0
rthumb 8.64619 -65.04 0
1641
root -15.0236 14.5561 19.4683 703.541 -71.6971 376.79
lfemur 11.1408 -12.1578 -13.1209
ltibia 30.7371 0 0
lfoot -21.1644 29.6306 0
ltoes -43.1973 0 0
rfemur -52.6276 -14.1691 7.76873
rtibia 65.9452 0 0
rfoot -10.256 10.5457 0
rtoes 2.87512 0 0
lowerback 12.9607 4.09968 -7.27465
upperback -0.390692 4.28449 -0.288015
thorax -8.23118 2.35904 2.91921
lowerneck 1.52642 -13.1746 -12.6794
upperneck 2.9912 -18.095 10.4014
head 2.74124 -9.07997 4.41862
lclavicle 7.80868e-14 -2.28887e-14 0
lhumerus -71.9158 -17.5924 104.376
lradius 104.177 0 0
lwrist 54.7643 0 0
lhand -16.4295 47.6911 0
lfingers 7.12502 0 0
lthumb 9.78571 77.4429 0
rclavicle 7.80868e-14 -2.28887e-14 0
rhumerus 46.7603 -3.65586 -55.4438
rradius 19.5539 0 0
rwrist 20.9518 0 0
rhand -17.3734 -35.4024 0
rfingers 7.12502 0 0
rthumb 8.87476 -65.1908 0
